<svg xmlns="http://www.w3.org/2000/svg" viewBox="0 0 57.76 35.98"><defs><style>.cls-1{fill:#ff9624;stroke:#303030;stroke-width:1.38px;}.cls-1,.cls-2,.cls-4{stroke-miterlimit:10;}.cls-2{fill:#fec23b;}.cls-2,.cls-4{stroke:#233539;stroke-width:1.29px;}.cls-3{fill:#ffcf36;}.cls-4{fill:#f6f6f6;}.cls-5{fill:#233539;}</style></defs><title>subs-object_1</title><g id="Layer_2" data-name="Layer 2"><g id="Layer_1-2" data-name="Layer 1"><path class="cls-1" d="M44.27,32.87,6.35,27a6.66,6.66,0,0,0-5.57-7.6l2-13.09A6.66,6.66,0,0,0,10.39.78L48.31,6.62c-.56,3.64,3.56,20.68,3.56,20.68A6.66,6.66,0,0,0,44.27,32.87Z"/><path class="cls-2" d="M50.3,35.33,11.94,35a6.66,6.66,0,0,0-6.61-6.71l.1-13.24a6.66,6.66,0,0,0,6.71-6.61l38.36.29a6.66,6.66,0,0,0,6.61,6.71L57,28.72A6.66,6.66,0,0,0,50.3,35.33Z"/><path class="cls-3" d="M15.88,13.54c-4.46,3.27-8,15,3.31,18S47.74,29,43.14,23.73,20.34,10.28,15.88,13.54Z"/><path class="cls-4" d="M29.77,21.15,23,16.88a.89.89,0,0,0-1.37.75l-.06,8.45a.89.89,0,0,0,1.36.77l6.86-4.17A.89.89,0,0,0,29.77,21.15Z"/><circle class="cls-5" cx="38.89" cy="18.81" r="0.63" transform="translate(19.78 57.56) rotate(-89.56)"/><circle class="cls-5" cx="38.91" cy="15.55" r="0.63" transform="translate(23.07 54.34) rotate(-89.56)"/><circle class="cls-5" cx="38.87" cy="21.98" r="0.63" transform="translate(16.59 60.68) rotate(-89.56)"/><circle class="cls-5" cx="38.84" cy="25.15" r="0.63" transform="translate(13.39 63.8) rotate(-89.56)"/><circle class="cls-5" cx="38.82" cy="28.32" r="0.63" transform="translate(10.2 66.92) rotate(-89.56)"/></g></g></svg>